<?xml version='1.0' encoding='utf-8'?>
<svg xmlns="http://www.w3.org/2000/svg" enable-background="new 0 0 792 612" version="1.1" viewBox="0 0 792 612"> <path d="m462.82 85.278c13.739 13.858 33.753 7.99 50.323 7.765 16.01 4.133 26.227 15.223 37.101 25.556 9.857 21.294 6.957 42.921 2 64.99-7.702 22.024-11.432 48.882-21.063 69.198-10.352 25.165-28.778 47.628-29.432 75.188-1.403 19.081-9.743 36.64-15.336 55.068-13.998 43.525-42.782 78.233-63.357 119.54-4.171 6.642-12.485 8.12-18.607 11.812l-0.521-1.82 3.09-10.56c4.139-30.725 13.669-61.103 15.128-91.164-0.832-6.456 0.428-14.299-5.515-18.944-3.025-2.612-6.494 0.959-9.254 2.28-12.009 6.631-10.322 20.773-12.791 31.954-0.954 14.677-5.019 29.613 3.171 43.632 1.138 29.231 6.03 57.471 17.905 85.865-1.653 6.899-2.957 14.865-6.19 20.711-1.644 0.857-3.724 0.464-5.185-0.551-49.943-64.708-92.027-146.3-83.747-226.3-6.311-44.089-23.498-86.405-31.677-130.26 0.767-25.748 3.155-54.411 13.887-79.045 10.103-13.155 28.17-18.535 35.385-34.25 8.89-13.667 16.358-30.681 35.177-34.042 22.444-3.575 44.967-4.79 67.63-5.146 8.313 4.984 14.256 12.658 21.878 18.528z"/> <path d="m478.86 97.944c11.171 1.63 22.622-0.643 34.199 0.568 13.455 5.657 27.944 13.709 33.862 28.382 4.101 12.167 5.285 23.134 3.091 35.637 0.746 5.875-1.918 11.63-2.406 17.927-1.91 11.63-7.673 23.685-8.792 36.25-5.648 20.761-13.63 43.242-25.424 62.172-4.325 11.413-11.749 23.487-14.606 35.502-0.72 7.888-0.929 17.171-3.935 24.877-0.52 6.845-4.871 13.157-6.095 20.882-6.076 22.954-15.204 49.055-28.74 68.676-13.829 24.882-29.23 50.36-44.352 74.979l-5.923 3.061c5.325-34.049 12.919-64.365 17.327-96.779-1.866-9.251 0.245-21.915-10.948-25.623-8.04-2.426-12.608 5.887-17.73 9.893-7.952 9.431-6.812 23.129-9.394 34.689-0.208 8.872-1.626 17.223-0.185 25.648l-0.457 0.133c1.054 4.042 1.651 8.641 4.428 11.999-0.029 28.584 7.445 57.367 17.015 84.336 1.781 5.659-0.559 11.242-2.189 16.353-1.593 1.15-3.204-1.148-4.209-2.304-16.522-20.655-30.774-41.556-43.44-65.671-21.935-46.851-40.068-94.838-34.784-144.72 1.02-20.033 4.942-39.264 5.416-59.328l-1.393 0.928c-2.359 15.613-2.51 29.457-5.161 44.291-1.408-12.005-6.336-23.745-8.72-34.82-8.101-28.564-16.869-58.445-22.206-87.911 0.19-23.045 3.214-48.074 10.452-69.963 4.829-7.815 12.28-14.38 19.342-19.285 2.284-2.43 7.321-3.995 9.979-6.312 21.309-5.173 44.154-10.829 65.272-2.04 11.206 1.09 18.95 9.606 26.912 16.125 5.42 6.275 12.086 11.274 17.963 16.997l0.449-0.138c-9.39-11.1-19.389-21.159-29.55-31.539-5.1-3.409-10.001-4.004-16.038-5.797l-0.815 0.43c-7.541-2.259-14.6-3.825-22.409-5.21-11.972 0.457-23.712 2.352-35.621 3.926 5.287-13.164 12.686-23.87 23.374-32.85 16.352-10.744 35.77-9.1 54.029-9.881 7.876 0.311 15.787 0.07 23.66-0.037 13.234 7.654 22.714 21.943 38.752 25.543z" fill="#fff"/> <path d="m460.07 148.74c-0.917 5.481-0.131 10.817-0.273 16.414 2.194 5.646 9.234 5.552 14.456 5.567-10.854 3.008-20.06 9.012-26.116 17.67-4.299 3.581-8.18 7.576-12.654 10.823-7.734 13.069-12.351 27.138-19.293 40.74 3.852-15.548 11.279-29.82 16.231-43.646 5.947-7.451 14.697-12.922 18.646-21.427 1.089-2.122-0.134-3.889 0.209-5.839 1.213-2.092 5.732-2.027 4.283-5.242-4.278-6.444-0.01-12.92 0.848-19.933 0.024-13.476 11.962-19.436 16.48-31.058l1.43-1.469c-6.274 11.068-14.351 23.897-14.247 37.4z"/> <path d="m534.15 190.75c-1.721 4.541-11.229 3.299-9.559 10.159-1.242 18.582-13.973 32.674-26.448 45.067 9.858-15.424 25.447-30.258 22.936-50.449-3.74-4.218-7.617-8.472-11.802-11.728-5.143-6.316-14.364-8.011-21.408-11.354 9.18 4.84 21.632 3.723 28.379 12.327 3.599 2.525 6.153 7.464 10.75 7.693 9.862-3.328 9.452-15.003 14.618-22.164l-7.466 20.449z"/> <path d="m352.88 228.47c6.568 4.845 14.98 7.794 21.185 13.342 2.663 0.715 4.146 2.973 6.564 4.016-13.475-6.484-26.205-13.154-38.318-20.443-14.242-11.413-16.935-32.758-25.955-47.175 11.176 17.581 19.092 39.354 36.524 50.26z"/> <path d="m470.79 263.25c-3.195 0.503-6.266 2.819-9.102 1.782l0.274-0.876 8.558-2.228c0.202 0.207 0.667 0.906 0.27 1.322z"/> <path d="m442.85 265.91c3.782 0.652 7.518 1.017 11.13 1.342-13.404 1.92-27.766-3.065-36.163-13.849-1.896-2.254-4.228-3.962-6.333-6.006l0.845-1.376c9.441 7.946 17.442 17.787 30.521 19.889z"/> <path d="m409.54 247.46c-5.697 4.934-14.475 2.685-19.84 0.977 6.275 1.44 12.066 0.132 18.162-2.189 0.743 0.239 1.534 0.35 1.678 1.212z"/> <path d="m432.57 341.84c-1.874 2.428-5.552 3.185-6.503 6.185 6.346-8.705 18.412-14.213 26.833-22.121 5.599-2.896 10.642-7.062 15.182-11.394-10.55 10.254-22.568 19.496-35.512 27.33z"/> <path d="m419.62 357.92-0.381-0.112c0.213-2.815 2.825-5.015 3.379-7.594l1.721-1.094c-0.662 2.952-4.738 4.541-4.719 8.8z"/> <path d="m417.58 360.85c-4.418 4.37-6.568 10.703-10.948 14.943l-1.449 3.252c0-3.028 2.483-6.503 4.312-9.219 2.666-2.312 3.483-6.176 5.812-8.734l1.478-0.763c0.127 0.445 0.545 0.445 0.795 0.521z"/> </svg>